<mxfile host="65bd71144e">
    <diagram id="i01F55FS2lRdzMfF5ygt" name="Pagina-1">
        <mxGraphModel dx="722" dy="692" grid="1" gridSize="10" guides="1" tooltips="1" connect="1" arrows="1" fold="1" page="1" pageScale="1" pageWidth="827" pageHeight="1169" math="0" shadow="0">
            <root>
                <mxCell id="0"/>
                <mxCell id="1" parent="0"/>
                <mxCell id="2" value="Crea un'entità per raccogliere tutti i docenti del Galilei. Imposta le sue caratteristiche." style="text;html=1;strokeColor=none;fillColor=none;align=center;verticalAlign=middle;whiteSpace=wrap;rounded=0;fontSize=22;" parent="1" vertex="1">
                    <mxGeometry x="120" y="140" width="570" height="30" as="geometry"/>
                </mxCell>
                <mxCell id="3" value="Esericizi da svolgere su Draw.io o su Diagrams.net con l'estensione (a sinsitra) del pacchetto &quot;Entità-relazione&quot;" style="text;html=1;strokeColor=none;fillColor=none;align=center;verticalAlign=middle;whiteSpace=wrap;rounded=0;fontSize=22;fontStyle=1" parent="1" vertex="1">
                    <mxGeometry x="120" y="60" width="570" height="30" as="geometry"/>
                </mxCell>
                <mxCell id="4" value="&lt;span style=&quot;font-size: 22px;&quot;&gt;Identifica gli attributi e la/le chiave/i primaria/e che sono&lt;/span&gt;&lt;br style=&quot;border-color: var(--border-color); font-size: 22px;&quot;&gt;&lt;span style=&quot;font-size: 22px;&quot;&gt;necessarie per la costruzione dell'entità.&lt;/span&gt;" style="text;html=1;align=center;verticalAlign=middle;resizable=0;points=[];autosize=1;strokeColor=none;fillColor=none;" parent="1" vertex="1">
                    <mxGeometry x="125" y="190" width="560" height="70" as="geometry"/>
                </mxCell>
            </root>
        </mxGraphModel>
    </diagram>
</mxfile>